<?xml version="1.0" standalone="no"?>
<!DOCTYPE svg PUBLIC "-//W3C//DTD SVG 20010904//EN"
 "http://www.w3.org/TR/2001/REC-SVG-20010904/DTD/svg10.dtd">
<svg version="1.0" xmlns="http://www.w3.org/2000/svg"
 width="117.000000pt" height="117.000000pt" viewBox="0 0 117.000000 117.000000"
 preserveAspectRatio="xMidYMid meet">
<metadata>
Created by potrace 1.11, written by Peter Selinger 2001-2013
</metadata>
<g transform="translate(0.000000,117.000000) scale(0.100000,-0.100000)"
fill="#000000" stroke="none">
<path d="M908 1119 c-46 -65 -119 -103 -304 -159 -207 -63 -265 -91 -330 -156
-86 -87 -113 -170 -111 -348 1 -109 11 -181 47 -346 7 -30 14 -57 16 -59 7 -8
112 81 189 161 164 171 252 294 345 484 29 57 53 104 55 104 6 0 -17 -64 -26
-74 -5 -6 -9 -16 -9 -24 0 -27 -108 -238 -163 -319 -59 -86 -91 -125 -167
-202 -55 -56 -158 -141 -171 -141 -5 0 -9 -6 -9 -13 0 -7 14 -14 33 -16 65 -7
233 -6 280 2 144 23 273 120 335 250 42 87 49 111 71 249 8 47 5 305 -3 363
-2 17 -7 51 -11 76 -3 26 -8 58 -11 70 -2 13 -7 38 -9 54 -3 17 -8 42 -12 56
l-8 26 -27 -38z"/>
</g>
</svg>
